<svg width="21" height="20" viewBox="0 0 21 20" fill="none" xmlns="http://www.w3.org/2000/svg">
<path d="M6.70946 15.9515C6.70946 16.0321 6.61672 16.0966 6.49978 16.0966C6.36672 16.1087 6.27398 16.0442 6.27398 15.9515C6.27398 15.8708 6.36672 15.8063 6.48365 15.8063C6.60462 15.7942 6.70946 15.8587 6.70946 15.9515ZM5.45543 15.77C5.4272 15.8507 5.50785 15.9434 5.62881 15.9676C5.73365 16.0079 5.85462 15.9676 5.87881 15.8869C5.90301 15.8063 5.82639 15.7136 5.70543 15.6773C5.60059 15.649 5.48365 15.6894 5.45543 15.77ZM7.23768 15.7015C7.12075 15.7297 7.0401 15.8063 7.0522 15.899C7.0643 15.9797 7.16914 16.0321 7.2901 16.0039C7.40704 15.9757 7.48768 15.899 7.47559 15.8184C7.46349 15.7418 7.35462 15.6894 7.23768 15.7015ZM9.89091 0.249847C4.29817 0.249847 0.0199432 4.49582 0.0199432 10.0886C0.0199432 14.5603 2.83446 18.3869 6.85462 19.7337C7.37075 19.8265 7.5522 19.5079 7.5522 19.2458C7.5522 18.9958 7.5401 17.6168 7.5401 16.77C7.5401 16.77 4.71752 17.3748 4.12478 15.5684C4.12478 15.5684 3.6651 14.395 3.00381 14.0926C3.00381 14.0926 2.08043 13.4595 3.06833 13.4716C3.06833 13.4716 4.07236 13.5523 4.62478 14.5119C5.50785 16.0684 6.98769 15.6208 7.5643 15.3547C7.65704 14.7095 7.91914 14.2619 8.20946 13.9958C5.95543 13.7458 3.68123 13.4192 3.68123 9.54017C3.68123 8.4313 3.98769 7.87485 4.63285 7.16517C4.52801 6.90307 4.18527 5.82243 4.73769 4.42727C5.58043 4.16517 7.51994 5.51598 7.51994 5.51598C8.3264 5.29017 9.19333 5.17323 10.0522 5.17323C10.9111 5.17323 11.778 5.29017 12.5845 5.51598C12.5845 5.51598 14.524 4.16114 15.3667 4.42727C15.9191 5.82646 15.5764 6.90307 15.4716 7.16517C16.1167 7.87888 16.5119 8.43533 16.5119 9.54017C16.5119 13.4313 14.1369 13.7418 11.8828 13.9958C12.2538 14.3144 12.5683 14.9192 12.5683 15.8668C12.5683 17.2257 12.5562 18.9071 12.5562 19.2378C12.5562 19.4998 12.7417 19.8184 13.2538 19.7257C17.2861 18.3869 20.0199 14.5603 20.0199 10.0886C20.0199 4.49582 15.4837 0.249847 9.89091 0.249847ZM3.9393 14.1571C3.88688 14.1974 3.89898 14.2902 3.96752 14.3668C4.03204 14.4313 4.12478 14.4595 4.1772 14.4071C4.22962 14.3668 4.21752 14.274 4.14898 14.1974C4.08446 14.1329 3.99172 14.1047 3.9393 14.1571ZM3.50381 13.8305C3.47559 13.8829 3.51591 13.9474 3.59656 13.9878C3.66107 14.0281 3.74172 14.016 3.76994 13.9595C3.79817 13.9071 3.75785 13.8426 3.6772 13.8023C3.59656 13.7781 3.53204 13.7902 3.50381 13.8305ZM4.81027 15.266C4.74575 15.3184 4.76994 15.4394 4.86269 15.516C4.95543 15.6087 5.07236 15.6208 5.12478 15.5563C5.1772 15.5039 5.15301 15.3829 5.07236 15.3063C4.98365 15.2136 4.86269 15.2015 4.81027 15.266ZM4.35059 14.6732C4.28607 14.7136 4.28607 14.8184 4.35059 14.9111C4.4151 15.0039 4.52398 15.0442 4.57639 15.0039C4.64091 14.9515 4.64091 14.8466 4.57639 14.7539C4.51994 14.6611 4.4151 14.6208 4.35059 14.6732Z" fill="white"/>
</svg>
