<svg width="21" height="12" viewBox="0 0 21 12" fill="none" xmlns="http://www.w3.org/2000/svg">
<path d="M19.8709 0.865187C20.0083 0.401087 19.8709 0.0595093 19.21 0.0595093H17.0232C16.4662 0.0595093 16.2101 0.352821 16.0727 0.679547C16.0727 0.679547 14.9588 3.39361 13.3846 5.15347C12.876 5.66213 12.6421 5.82549 12.3636 5.82549C12.2262 5.82549 12.0146 5.66213 12.0146 5.19803V0.865187C12.0146 0.308267 11.8587 0.0595093 11.3983 0.0595093H7.96021C7.61121 0.0595093 7.40329 0.319405 7.40329 0.560738C7.40329 1.08796 8.1904 1.21048 8.27209 2.6956V5.91831C8.27209 6.62374 8.14585 6.75369 7.86739 6.75369C7.12483 6.75369 5.32041 4.02849 4.25112 0.909741C4.03578 0.304554 3.82415 0.0595093 3.26352 0.0595093H1.07668C0.452926 0.0595093 0.326691 0.352821 0.326691 0.679547C0.326691 1.25874 1.06925 4.13617 3.78331 7.93808C5.59144 10.5333 8.13842 11.9405 10.4552 11.9405C11.8475 11.9405 12.0183 11.6286 12.0183 11.0902C12.0183 8.61009 11.8921 8.37619 12.5901 8.37619C12.9131 8.37619 13.47 8.53955 14.7695 9.79076C16.2546 11.2759 16.4997 11.9405 17.3313 11.9405H19.5182C20.1419 11.9405 20.4575 11.6286 20.2756 11.0123C19.8597 9.71651 17.0491 7.05072 16.9229 6.8725C16.5999 6.45667 16.6927 6.27103 16.9229 5.89975C16.9266 5.89603 19.5961 2.13868 19.8709 0.865187Z" fill="white"/>
</svg>
